<?xml version="1.0" encoding="utf-8"?>
<!-- Generator: Adobe Illustrator 23.0.2, SVG Export Plug-In . SVG Version: 6.00 Build 0)  -->
<svg version="1.1" id="图层_1" focusable="false" xmlns="http://www.w3.org/2000/svg" xmlns:xlink="http://www.w3.org/1999/xlink"
	 x="0px" y="0px" viewBox="0 0 173 123" style="enable-background:new 0 0 173 123;" xml:space="preserve">
<style type="text/css">
	.st0{fill:#6EE5A4;}
	.st1{fill:#3EC682;}
</style>
<g>
	<path class="st0" d="M92.8,64.7H74.3l-8.1,6c-0.4,0.3-1,0.3-1.4-0.2c-0.2-0.2-0.2-0.3-0.2-0.6v-5.3c-3.4,0-6.2-2.8-6.2-6.2V42.8
		c0-3.4,2.8-6.2,6.2-6.2h28c3.4,0,6.2,2.8,6.2,6.2v15.5C99.1,61.9,96.3,64.7,92.8,64.7L92.8,64.7z"/>
	<path class="st1" d="M114.6,58.5V74c0,3.4-2.8,6.2-6.2,6.2h-3.1v5.3c0,0.5-0.4,0.9-0.9,0.9c-0.3,0-0.4-0.1-0.6-0.2l-8.1-6H83.5
		c-3.4,0-6.2-2.8-6.2-6.2v-6.2h15.5c5.2,0,9.3-4.2,9.3-9.3v-6.2h6.2C111.8,52.3,114.6,55.1,114.6,58.5z"/>
</g>
</svg>
