<svg id="图层_1" data-name="图层 1" xmlns="http://www.w3.org/2000/svg" viewBox="0 0 173 123"><title>New Text Document3</title><path d="M67.8,73.8H62.4v-11h5.2c2.5,0,3.8,1,3.9,2.6a2.25,2.25,0,0,1-1.1,2.1.47.47,0,0,0,0,.8,2.61,2.61,0,0,1,1.5,2.2C71.8,72.8,70.4,73.8,67.8,73.8Zm-.7-9.1H64.9v2.6h2.2c1.1,0,1.7-.6,1.7-1.4S68.2,64.7,67.1,64.7Zm.2,4.5H64.8v2.9h2.5a1.76,1.76,0,0,0,2-1.5A1.74,1.74,0,0,0,67.3,69.2Z" style="fill:#f28327"/><path d="M81.1,73.8H73v-11h2.5v9.1h5.6Z" style="fill:#f28327"/><path d="M93.1,68.3c-.1,3.6-2,5.4-5.4,5.6-3.5-.1-5.3-2.1-5.4-5.6.1-3.6,2-5.6,5.4-5.7C91,62.9,92.9,64.7,93.1,68.3Zm-2.8,0c0-2.2-1-3.5-2.8-3.6-1.8.1-2.8,1.3-2.8,3.6s1,3.5,2.8,3.5S90.3,70.7,90.3,68.3Z" style="fill:#f28327"/><path d="M104.4,65.4l-2.2.8a2.9,2.9,0,0,0-2.8-1.5c-1.7.1-2.5,1.4-2.6,3.5s1,3.5,2.9,3.6a2.81,2.81,0,0,0,2.6-1.1V69.3H99.1v-2h5.6v4c-.7,1.5-2.5,2.4-5,2.5-3.5-.1-5.3-2.1-5.4-5.7.1-3.6,2-5.4,5.3-5.6A5.32,5.32,0,0,1,104.4,65.4Z" style="fill:#f28327"/><path d="M108.4,51.6V74.2a2.43,2.43,0,0,1-2.4,2.4H85.5a9.88,9.88,0,0,0-5.3,1.5L70,84.5V76.6H61a2.43,2.43,0,0,1-2.4-2.4V41.3A2.43,2.43,0,0,1,61,38.9H97.3l5.6-5.6H61a8.07,8.07,0,0,0-8.1,8.1V74.3A8.07,8.07,0,0,0,61,82.4h3.4V94.3a.34.34,0,0,0,.5.3L83.2,82.9a4.76,4.76,0,0,1,2.3-.7h20.4a8.07,8.07,0,0,0,8.1-8.1V46Z" style="fill:#f28327"/><path d="M117.6,39.5l1.4-1.4a3.74,3.74,0,0,0,0-5.2l-3.5-3.5a3.74,3.74,0,0,0-5.2,0l-1.4,1.4Z" style="fill:#f28327"/><rect x="109.41" y="31.61" width="2.5" height="12.3" transform="translate(5.71 89.3) rotate(-45)" style="fill:#f28327"/><path d="M103.6,36,90.5,49.1a.76.76,0,0,0-.2.4L87.5,59.7a1,1,0,0,0,1.2,1.2l10.2-2.8a.52.52,0,0,0,.4-.2l13.1-13.1Z" style="fill:#f28327"/></svg>