<?xml version="1.0" encoding="utf-8"?>
<!-- Generator: Adobe Illustrator 23.0.2, SVG Export Plug-In . SVG Version: 6.00 Build 0)  -->
<svg version="1.1" id="图层_1" focusable="false" xmlns="http://www.w3.org/2000/svg" xmlns:xlink="http://www.w3.org/1999/xlink"
	 x="0px" y="0px" viewBox="0 0 173 123" style="enable-background:new 0 0 173 123;" xml:space="preserve">
<style type="text/css">
	.st0{fill:#83F1FC;}
	.st1{fill:#2DCEE8;}
</style>
<g>
	<path class="st0" d="M95.2,83.8c-0.9-16.7-14.2-30-30.9-30.9c-0.9,0-1.7,0.7-1.8,1.6c0,0,0,0,0,0.1v5.2c0,0.9,0.7,1.7,1.6,1.7
		c12,0.8,21.7,10.4,22.5,22.5c0.1,0.9,0.8,1.6,1.7,1.6h5.2C94.4,85.7,95.2,84.8,95.2,83.8L95.2,83.8L95.2,83.8z M64.2,37.3
		c-0.9,0-1.7,0.7-1.8,1.7l0,0v5.2c0,0.9,0.7,1.7,1.7,1.7c20.6,0.8,37.1,17.4,38,38c0,0.9,0.8,1.7,1.7,1.7h5.2c0.9,0,1.7-0.8,1.7-1.7
		l0,0C109.8,58.7,89.6,38.2,64.2,37.3z"/>
	<path class="st1" d="M62.4,78.8c0-3.8,3.1-6.9,6.9-6.9s6.9,3.1,6.9,6.9s-3.1,6.9-6.9,6.9S62.4,82.5,62.4,78.8z"/>
</g>
</svg>
