<?xml version="1.0" encoding="utf-8"?>
<!-- Generator: Adobe Illustrator 23.0.2, SVG Export Plug-In . SVG Version: 6.00 Build 0)  -->
<svg version="1.1" id="图层_1" focusable="false" xmlns="http://www.w3.org/2000/svg" xmlns:xlink="http://www.w3.org/1999/xlink"
	 x="0px" y="0px" viewBox="0 0 496 512" style="enable-background:new 0 0 496 512;" xml:space="preserve">
<style type="text/css">
	.st0{fill:#495057;}
</style>
<path class="st0" d="M248,8C111,8,0,119,0,256s111,248,248,248s248-111,248-248S385,8,248,8z M216,58.8v11.3
	c0,11.9-12.5,19.6-23.2,14.3l-24-12C183.7,66,199.5,61.5,216,58.8z M248,428.6V456c-110.3,0-200-89.7-200-200
	c0-29.1,6.4-56.7,17.6-81.7c9.9,14.7,25.2,37.4,34.6,51.1c5.2,7.6,11.2,14.6,18.1,20.7l0.8,0.7c9.5,8.6,20.2,16,31.6,21.8
	c14,7,34.4,18.2,48.8,26.1c10.2,5.6,16.5,16.3,16.5,28v32c0,8.5,3.4,16.6,9.4,22.6C240.4,392.4,249.7,416,248,428.6z M290.7,451.3
	l17.4-46.9c2-5.5,3.3-11.2,4.8-16.9c1.1-4,3.2-7.7,6.2-10.7l11.3-11.3c8.8-8.7,13.7-20.6,13.7-33c0-8.1-3.2-15.9-8.9-21.6
	l-13.7-13.7c-6-6-14.1-9.4-22.6-9.4H232c-9.4-4.7-21.5-32-32-32s-20.9-2.5-30.3-7.2l-11.1-5.5c-4-2-6.6-6.2-6.6-10.7
	c0-5.1,3.3-9.7,8.2-11.3l31.2-10.4c5.4-1.8,11.3-0.6,15.5,3.1l9.3,8.1c1.5,1.3,3.3,2,5.2,2h5.6c6,0,9.8-6.3,7.2-11.6l-15.6-31.2
	c-1.6-3.1-0.9-6.9,1.6-9.3l9.9-9.6c1.5-1.5,3.5-2.3,5.6-2.3h9c2.1,0,4.2-0.8,5.7-2.3l8-8c3.1-3.1,3.1-8.2,0-11.3l-4.7-4.7
	c-3.1-3.1-3.1-8.2,0-11.3L264,112l4.7-4.7c6.2-6.2,6.2-16.4,0-22.6l-28.3-28.3c2.5-0.1,5-0.4,7.6-0.4c78.2,0,145.8,45.2,178.7,110.7
	l-13,6.5c-3.7,1.9-6.9,4.7-9.2,8.1l-19.6,29.4c-5.4,8.1-5.4,18.6,0,26.6l18,27c3.3,5,8.4,8.5,14.1,10l29.2,7.3
	C435.4,365.6,372.3,433.5,290.7,451.3z"/>
</svg>
