<?xml version="1.0" encoding="utf-8"?>
<!-- Generator: Adobe Illustrator 23.0.2, SVG Export Plug-In . SVG Version: 6.00 Build 0)  -->
<svg version="1.1" id="图层_1" xmlns="http://www.w3.org/2000/svg" xmlns:xlink="http://www.w3.org/1999/xlink" x="0px" y="0px"
	 viewBox="0 0 2127.7 401.6" style="enable-background:new 0 0 2127.7 401.6;" xml:space="preserve">
<style type="text/css">
	.st0{fill:#FFFFFF;}
</style>
<title>资源 1</title>
<g>
	<g>
		<path class="st0" d="M84.4,74.9c3.9-3.9,10.2-3.9,14.1,0s3.9,10.2,0,14.1s-10.2,3.9-14.1,0S80.5,78.8,84.4,74.9z"/>
		<path class="st0" d="M376.1,332V69.5c0-20.7-16.8-37.4-37.4-37.4l0,0H76.1c-20.7,0-37.4,16.8-37.4,37.4l0,0V332
			c0,20.7,16.7,37.5,37.4,37.5l0,0h262.5C359.3,369.5,376,352.8,376.1,332C376.1,332.1,376.1,332.1,376.1,332z M67,84
			c-1.1-13.5,8.9-25.3,22.4-26.4c13.5-1.1,25.3,8.9,26.4,22.4c1.1,13.5-8.9,25.3-22.4,26.4c-1.3,0.1-2.7,0.1-4,0
			C77.5,105.4,68,95.9,67,84z M307.2,262.6l-62.3,62.6c-3.8,3.8-8.9,5.9-14.3,5.9H125.8c-1.4,0-2.5-1.1-2.5-2.5v-5.2
			c0-24.1,19.6-43.7,43.7-43.7l0,0h76.8c7.4,0,13.4-6,13.4-13.4V240c0-7.4-6-13.4-13.4-13.4h-59.7c-5.4,0-10.5-2.1-14.3-5.9
			L107.3,158c-5.3-5.2-5.3-13.8,0-19l0,0l62.6-62.6c3.8-3.8,8.9-5.9,14.3-5.9h104.7c1.4,0,2.5,1.1,2.5,2.5v5.2
			c0,24.1-19.6,43.7-43.7,43.7h-76.8c-7.4,0-13.4,6-13.4,13.4v26.3c0,7.4,6,13.4,13.4,13.4h59.4c5.4,0,10.5,2.1,14.3,5.9l62.6,62.6
			C312.4,248.9,312.4,257.4,307.2,262.6z"/>
	</g>
	<path class="st0" d="M1151.2,128.6L1072.3,58c-5.7-5.1-13.1-7.9-20.8-7.9h-60.7c-7.7,0-15,2.8-20.8,7.9l-80.2,71.8
		c-6.6,5.9-10.4,14.3-10.4,23.2v190.6c0,4.3,3.5,7.8,7.8,7.8l0,0h50.7c4.3,0,7.8-3.5,7.8-7.8l0,0V140.5c0-17.2,13.9-31.1,31.1-31.1
		l0,0h96.4c8.6,0,15.5,7,15.5,15.6v30.5c0,8.6-7,15.5-15.5,15.5h-103c-4.3,0-7.8,3.5-7.8,7.8l0,0v43.8c0,4.3,3.5,7.8,7.8,7.8l0,0
		h81.3c7.7,0,15-2.8,20.8-7.9l78.9-70.7c6.4-5.7,7-15.5,1.2-21.9C1152,129.4,1151.6,129,1151.2,128.6z"/>
	<path class="st0" d="M1406.1,171h-113c-4.3,0-7.8,3.5-7.8,7.8l0,0v43.9c0,4.3,3.5,7.8,7.8,7.8l0,0h155.8c2.1,0,3.9-1.7,3.9-3.9l0,0
		v-8.9C1452.7,191.9,1431.9,171,1406.1,171L1406.1,171z"/>
	<path class="st0" d="M1445,50h-130.4c-7.7,0-15,2.8-20.8,8l-81,72.6c-6.6,5.9-10.3,14.3-10.3,23.2v94c0,8.8,3.8,17.3,10.3,23.2
		l81.1,72.6c5.7,5.1,13.1,7.9,20.8,7.9H1445c4.3,0,7.8-3.5,7.8-7.8l0,0v-43.9c0-4.3-3.5-7.8-7.8-7.8l0,0h-145.2
		c-17.2,0-31.1-13.9-31.1-31.1l0,0V140.5c0-17.2,13.9-31.1,31.1-31.1H1445c4.3,0,7.8-3.5,7.8-7.8l0,0V57.8
		C1452.7,53.5,1449.3,50,1445,50L1445,50z"/>
	<path class="st0" d="M1714.7,171h-113c-4.3,0-7.8,3.5-7.8,7.8l0,0v43.9c0,4.3,3.5,7.8,7.8,7.8l0,0h155.7c2.1,0,3.9-1.7,3.9-3.9l0,0
		v-8.9C1761.4,191.9,1740.5,171,1714.7,171z"/>
	<path class="st0" d="M1753.6,50h-130.4c-7.7,0-15,2.8-20.8,8l-81,72.6c-6.6,5.9-10.3,14.3-10.3,23.2v94c0,8.8,3.8,17.3,10.3,23.2
		l81.1,72.6c5.7,5.1,13.1,7.9,20.8,7.9h130.4c4.3,0,7.8-3.5,7.8-7.8l0,0v-43.9c0-4.3-3.5-7.8-7.8-7.8l0,0h-145.2
		c-17.2,0-31.1-13.9-31.1-31.1V140.5c0-17.2,13.9-31.1,31.1-31.1h145.2c4.3,0,7.8-3.5,7.8-7.8l0,0V57.8
		C1761.4,53.5,1757.9,50.1,1753.6,50z"/>
	<path class="st0" d="M1875.7,50H1824c-4.3,0-7.8,3.5-7.8,7.8l0,0v286.8c0,3.8,3.1,6.9,6.9,6.9l0,0h52.5c3.8,0,6.9-3.1,6.9-6.9l0,0
		V56.9C1882.5,53.1,1879.5,50,1875.7,50L1875.7,50z"/>
	<path class="st0" d="M2078.7,128.1L2000.5,58c-5.7-5.1-13.1-7.9-20.8-7.9H1906c-4.3,0-7.8,3.5-7.8,7.8l0,0v43.9
		c0,4.3,3.5,7.8,7.8,7.8l0,0h100.7c4.3,0,7.8,3.5,7.8,7.8l0,0v167.1c0,4.3-3.5,7.8-7.8,7.8l0,0H1906c-4.3,0-7.8,3.5-7.8,7.8l0,0V344
		c0,4.3,3.5,7.8,7.8,7.8l0,0h73.7c7.7,0,15-2.8,20.7-7.9l78.4-70.2c6.6-5.9,10.3-14.3,10.3-23.2v-99
		C2089.1,142.4,2085.3,134,2078.7,128.1z"/>
	<path class="st0" d="M758.8,50h50.7c4.3,0,7.8,3.5,7.8,7.8v44c0,4.3-3.5,7.8-7.8,7.8h-50.7c-4.3,0-7.8-3.5-7.8-7.8v-44
		C751,53.5,754.5,50,758.8,50z"/>
	<path class="st0" d="M813.3,171h-20.7c-23,0-41.7,18.7-41.7,41.7v130.9c0,4.3,3.5,7.8,7.8,7.8l0,0h50.7c4.3,0,7.8-3.5,7.8-7.8l0,0
		V174.9C817.3,172.7,815.5,171,813.3,171C813.4,171,813.4,171,813.3,171z"/>
	<path class="st0" d="M614.8,177.8c-4.4-4.4-10.3-6.8-16.5-6.8h-68.7c-8.6,0-15.5-7-15.5-15.5v-30.4c0-8.6,7-15.5,15.5-15.6h88.9
		c27.9,0,50.5-22.6,50.5-50.5l0,0v-5.1c0-2.1-1.7-3.9-3.9-3.9l0,0H545c-6.2,0-12.1,2.5-16.5,6.8l-72.4,72.4c-6.1,6.1-6.1,15.9,0,22
		l0,0l72.4,72.4c4.4,4.4,10.3,6.8,16.5,6.8h69c8.6,0,15.5,7,15.5,15.5v30.4c0,8.6-7,15.5-15.5,15.5h-92.8
		c-25.8,0-46.6,20.9-46.6,46.6v9c0,2.1,1.7,3.9,3.9,3.9h120.1c6.2,0,12.1-2.5,16.5-6.9l72.1-72.4c6.1-6.1,6.1-15.9,0-22l0,0
		L614.8,177.8z"/>
</g>
</svg>
