<?xml version="1.0" encoding="utf-8"?>
<!-- Generator: Adobe Illustrator 23.0.2, SVG Export Plug-In . SVG Version: 6.00 Build 0)  -->
<svg version="1.1" id="图层_1" focusable="false" xmlns="http://www.w3.org/2000/svg" xmlns:xlink="http://www.w3.org/1999/xlink"
	 x="0px" y="0px" viewBox="0 0 173 123" style="enable-background:new 0 0 173 123;" xml:space="preserve">
<style type="text/css">
	.st0{fill:#7BD0FF;}
	.st1{fill:#1087E8;}
</style>
<g>
	<path class="st0" d="M93.1,38.3v16.9h8.8c1.8,0,2.7,2.1,1.4,3.4L88,73.9c-0.8,0.8-2,0.8-2.8,0L69.9,58.6c-1.3-1.3-0.4-3.4,1.4-3.4
		h8.8V38.3c0-1.4,1.1-2.4,2.4-2.4l0,0h8.1C91.9,35.7,93.1,36.9,93.1,38.3L93.1,38.3z"/>
	<path class="st1" d="M109.9,71.1H95.1L90.2,76c-2,2-5.3,2-7.3,0l0,0L78,71.1H63.2c-1.4,0-2.4,1.1-2.4,2.4l0,0v11.2
		c0,1.4,1.1,2.4,2.4,2.4l0,0h46.6c1.4,0,2.4-1.1,2.4-2.4l0,0V73.5C112.4,72.2,111.3,71.1,109.9,71.1L109.9,71.1z M97.9,80.8
		c-0.9,0-1.6-0.8-1.6-1.6c0-0.9,0.8-1.6,1.6-1.6c0.9,0,1.6,0.8,1.6,1.6C99.5,80.1,98.8,80.8,97.9,80.8z M104.3,80.8
		c-0.9,0-1.6-0.8-1.6-1.6c0-0.9,0.8-1.6,1.6-1.6c0.9,0,1.6,0.8,1.6,1.6C106,80.1,105.2,80.8,104.3,80.8z"/>
</g>
</svg>
