<?xml version="1.0" encoding="utf-8"?>
<!-- Generator: Adobe Illustrator 23.0.2, SVG Export Plug-In . SVG Version: 6.00 Build 0)  -->
<svg version="1.1" id="图层_1" focusable="false" xmlns="http://www.w3.org/2000/svg" xmlns:xlink="http://www.w3.org/1999/xlink"
	 x="0px" y="0px" viewBox="0 0 173 123" style="enable-background:new 0 0 173 123;" xml:space="preserve">
<style type="text/css">
	.st0{fill:#444DF2;}
	.st1{fill:#FFB600;}
</style>
<g>
	<path class="st0" d="M42.8,72H27.9V51.9h4.6v16.6h10.3V72L42.8,72z"/>
	<path class="st0" d="M49.5,55.6h-4.6v-3.7h4.6V55.6z M49.5,72h-4.6V57.7h4.6V72z"/>
	<path class="st0" d="M67.4,62.2l-4.5,0.6c-0.6-1.3-1.6-2-2.9-2.1c-2.3,0.1-3.5,1.6-3.7,4.3c0,2.7,1.2,4,3.7,4
		c1.7-0.1,2.7-1,2.9-2.6l4.7,0.5c-1.1,3.7-3.7,5.4-7.9,5.3c-5.2-0.1-7.9-2.6-8-7.5c0.2-4.9,2.9-7.4,8.1-7.5
		C63.6,57.5,66.1,59.1,67.4,62.2z"/>
	<path class="st0" d="M84.3,72h-4.5v-8c0-2.1-0.9-3.2-2.6-3.2c-1.8,0.2-2.7,1.3-2.8,3.4v7.9H70V50.8h4.4v9.1
		c1.3-1.6,2.8-2.4,4.7-2.5c3.6-0.1,5.4,1.9,5.3,5.8L84.3,72L84.3,72z"/>
	<path class="st0" d="M102.1,65.1v1.1H90.9c0.2,1.9,1.4,3,3.7,3.2c1.6-0.1,2.7-0.7,3.1-1.8l4.7,0.5c-1.2,2.8-3.7,4.2-7.8,4.2
		c-5.2-0.2-8-2.6-8.2-7.1c0.2-5.1,2.7-7.7,7.7-7.9C99.4,57.3,102.1,59.9,102.1,65.1z M90.8,63.4h7c-0.2-1.9-1.3-2.9-3.5-3.1
		C92.2,60.4,91,61.4,90.8,63.4z"/>
	<path class="st0" d="M119.7,65.1v1.1h-11.2c0.2,1.9,1.4,3,3.7,3.2c1.6-0.1,2.7-0.7,3.1-1.8l4.7,0.5c-1.2,2.8-3.7,4.2-7.8,4.2
		c-5.2-0.2-8-2.6-8.2-7.1c0.2-5.1,2.7-7.7,7.7-7.9C117,57.3,119.7,59.9,119.7,65.1z M108.4,63.4h7c-0.2-1.9-1.3-2.9-3.5-3.1
		C109.8,60.4,108.6,61.4,108.4,63.4z"/>
	<path class="st1" d="M130.2,65h-3.4v7h-4.6V51.9h8.4c4.9,0.1,7.4,2.2,7.6,6.3C138.3,62.8,135.7,65.1,130.2,65z M129.9,55.4h-3v6.1
		h3c2.4-0.1,3.6-1.1,3.7-3.1C133.5,56.5,132.3,55.5,129.9,55.4z"/>
	<path class="st1" d="M145.1,55.6h-4.6v-3.7h4.6V55.6z M145.1,72h-4.6V57.7h4.6V72z"/>
</g>
</svg>
