<svg id="图层_1" data-name="图层 1" xmlns="http://www.w3.org/2000/svg" viewBox="0 0 173 123"><title>LONGAN</title><path d="M50.7,68.7H35.6V48.3h4.6V65.1H50.7v3.6Z"/><path d="M68.4,61.4c-.1,4.9-2.9,7.4-8,7.5-5.1-.3-7.8-2.8-8-7.5.3-5,2.9-7.5,8-7.7C65.5,53.9,68.2,56.4,68.4,61.4Zm-4.7,0c0-2.8-1.3-4.3-3.4-4.3S57,58.5,57,61.4s1.1,4.1,3.3,4.1S63.7,64.2,63.7,61.4Z"/><path d="M85.1,68.6H80.6V60.4c0-2.3-.9-3.3-2.6-3.3s-2.8,1.3-2.9,3.4v8H70.6V54h4.5v2.3a6.2,6.2,0,0,1,4.8-2.5c3.6,0,5.4,1.9,5.4,5.9v8.9Z"/><path d="M87.5,68.8l4.9.5c.1,1.3,1,2,2.6,2,1.9,0,2.8-1.3,2.9-3.6l-.1-2a5,5,0,0,1-4.5,2.4c-4-.1-6-2.5-6.1-7.2s2.3-7.2,6.5-7.3a4.34,4.34,0,0,1,4.1,2.1V54h4.5V66.4c.3,5.8-2.4,8.5-8,8.3C90.1,74.6,87.9,72.6,87.5,68.8ZM98,60.9v-.5a2.92,2.92,0,0,0-3-3.3c-2.1,0-3.1,1.3-3.3,3.5,0,2.6,1.1,4,3.1,4.1C97,64.8,98,63.4,98,60.9Z"/><path d="M121,68.6h-4.3a4.83,4.83,0,0,1-.6-2.1,8,8,0,0,1-6.3,2.5c-3-.1-4.5-1.5-4.8-4.1,0-2.6,1.8-4.3,5.4-4.9a19,19,0,0,0,5.4-1.4c.1-1.3-.8-1.9-2.9-1.9a3.19,3.19,0,0,0-3.3,1.9l-4.1-.5c.8-3,3.3-4.4,7.4-4.4,5.1-.1,7.7,1.9,7.4,6.3v5.5A4.88,4.88,0,0,0,121,68.6Zm-4.9-6.7V61a13.62,13.62,0,0,1-3.9,1.3c-2,.4-3,1.1-3,2s.8,1.5,2.4,1.5C114.4,65.8,115.9,64.4,116.1,61.9Z"/><path d="M137.3,68.6h-4.5V60.4c0-2.3-.9-3.3-2.6-3.3s-2.8,1.3-2.9,3.4v8h-4.5V54h4.5v2.3a6.2,6.2,0,0,1,4.8-2.5c3.6,0,5.4,1.9,5.4,5.9v8.9Z"/></svg>