<?xml version="1.0" encoding="utf-8"?>
<!-- Generator: Adobe Illustrator 23.0.2, SVG Export Plug-In . SVG Version: 6.00 Build 0)  -->
<svg version="1.1" id="图层_1" focusable="false" xmlns="http://www.w3.org/2000/svg" xmlns:xlink="http://www.w3.org/1999/xlink"
	 x="0px" y="0px" viewBox="0 0 173 123" style="enable-background:new 0 0 173 123;" xml:space="preserve">
<style type="text/css">
	.st0{enable-background:new    ;}
	.st1{fill:#F84C48;}
	.st2{fill:#FFAA00;}
</style>
<g>
	<g class="st0">
		<path class="st1" d="M57.6,72.5H53V60.1c0-1.4,0.1-2.9,0.1-4.7H53c-0.2,1.6-0.6,2.7-0.8,3.5l-3.9,13.6h-4.1l-3.9-14.1
			c-0.1-0.8-0.4-1.9-0.8-3.3h-0.1c0,0.4,0,0.9,0.1,1.6c0.1,1.9,0.1,3.3,0.1,4.1v11.5h-4.5v-21h7L45.8,65c0.1,0.4,0.1,1.2,0.2,2.3
			c0-0.1,0-0.4,0.1-0.8c0-0.8,0.1-1.4,0.1-1.5l3.7-13.7H57v21.2h0.2l0,0H57.6z"/>
		<path class="st1" d="M76.3,72.3H72c-0.4-0.8-0.7-1.5-0.7-2.1c-1.4,1.6-3.6,2.5-6.4,2.6c-3.2-0.1-4.7-1.6-4.9-4.2
			c-0.1-2.7,1.8-4.3,5.5-4.9c2.7-0.4,4.6-0.9,5.5-1.4c0.1-1.4-0.8-2-2.9-1.9c-1.8,0-2.8,0.7-3.4,1.9l-4.2-0.6
			c0.8-3.2,3.4-4.6,7.5-4.5c5.3-0.1,8,2,7.6,6.4v5.9C75.5,70.5,75.8,71.7,76.3,72.3z M71.4,65.6v-0.8c-0.9,0.6-2.3,0.9-4.1,1.4
			c-2,0.4-3.2,1.2-3.2,2c-0.1,0.9,0.8,1.5,2.5,1.5C69.4,69.5,71,68.2,71.4,65.6z"/>
		<path class="st1" d="M83,55.3h-4.7v-3.8H83V55.3z M83,72.5h-4.7V57.6H83V72.5z"/>
		<path class="st1" d="M102.2,72.3h-5.3l-3.6-5.9l-3.7,5.9h-5.3l5.9-7.5l-5.3-7.5h4.9l3.5,5.9l3.5-5.9h4.9l-5.3,7.5L102.2,72.3z"/>
	</g>
	<g class="st0">
		<path class="st2" d="M112,65h-3.5v7.3h-4.7v-21h8.8c5.2,0.1,7.7,2.3,8,6.7C120.6,62.7,117.8,65,112,65z M111.8,55.2h-3.2v6.3h3.2
			c2.5-0.1,3.7-1.2,3.7-3.3C115.4,56.2,114.3,55.2,111.8,55.2z"/>
		<path class="st2" d="M137.9,57.3l-6.2,15.6c-1.4,4.1-3.6,6-6.7,5.9c-0.9,0-1.8-0.1-2.7-0.4l-0.4-3.6c0.9,0.4,1.6,0.6,2.3,0.6
			c1.2,0.1,2-0.4,2.6-1.4l0.8-1.9l-6.2-14.6h5.2l2.9,8.8c0.1,0.7,0.2,1.4,0.6,2h0.1c0.1-0.2,0.1-0.8,0.2-1.4
			c0.1-0.2,0.1-0.6,0.1-0.7l2.7-8.8L137.9,57.3L137.9,57.3z"/>
	</g>
</g>
</svg>
