<?xml version="1.0" encoding="utf-8"?>
<!-- Generator: Adobe Illustrator 23.0.2, SVG Export Plug-In . SVG Version: 6.00 Build 0)  -->
<svg version="1.1" id="图层_1" focusable="false" xmlns="http://www.w3.org/2000/svg" xmlns:xlink="http://www.w3.org/1999/xlink"
	 x="0px" y="0px" viewBox="0 0 173 123" style="enable-background:new 0 0 173 123;" xml:space="preserve">
<style type="text/css">
	.st0{fill:#F43131;}
</style>
<g>
	<path class="st0" d="M70.5,52.5h-6.3v15.9h-4.5V52.5h-6.4v-3.7h17.2V52.5z"/>
	<path class="st0" d="M87.4,68.4h-4c-0.5-0.7-0.6-1.4-0.6-2c-1.3,1.5-3.3,2.4-6,2.4c-2.8-0.2-4.4-1.4-4.5-3.9s1.7-4,5.1-4.6
		c2.5-0.4,4.3-0.8,5.1-1.3c0.1-1.2-0.7-1.8-2.7-1.8c-1.5,0-2.6,0.6-3.1,1.8l-4-0.5c0.7-2.8,3.1-4.3,7-4.2c5-0.1,7.4,1.8,7.1,6v5.3
		C86.7,66.7,87,67.7,87.4,68.4z M82.8,62v-0.8c-0.8,0.5-2.1,0.9-3.7,1.2c-1.9,0.4-2.8,1.1-2.8,1.9c-0.1,0.9,0.7,1.4,2.3,1.4
		C81,65.7,82.5,64.3,82.8,62z"/>
	<path class="st0" d="M103.1,68.4h-4.4v-7.8c0-2.1-0.8-3.2-2.6-3.1c-1.7,0.1-2.6,1.2-2.7,3.3v7.6H89v-14h4.4v2.1
		c1.1-1.4,2.6-2.3,4.5-2.4c3.4,0,5.2,1.8,5.1,5.7L103.1,68.4L103.1,68.4L103.1,68.4z"/>
	<path class="st0" d="M105.4,68.6l4.7,0.5c0.1,1.2,0.9,1.9,2.6,1.9c1.8,0,2.7-1.2,2.7-3.4l-0.1-1.9c-0.8,1.4-2.4,2.3-4.4,2.3
		c-3.8-0.2-5.7-2.5-5.8-6.9c0-4.5,2.1-6.9,6.2-6.9c1.9,0.1,3.2,0.7,4,2v-1.8h4.4v11.9c0.4,5.6-2.3,8.2-7.6,7.9
		C107.8,74.1,105.7,72.2,105.4,68.6z M115.4,61v-0.5c-0.1-2-0.9-3.1-2.8-3.1c-2,0.1-3.1,1.2-3.1,3.3c0,2.5,1.1,3.8,3,3.9
		S115.4,63.5,115.4,61z"/>
</g>
</svg>
